<?xml version="1.0" encoding="UTF-8" standalone="no"?><svg xmlns="http://www.w3.org/2000/svg" xmlns:xlink="http://www.w3.org/1999/xlink" contentScriptType="text/ecmascript" fill="none" width="96" zoomAndPan="magnify" style="fill: none" contentStyleType="text/css" viewBox="0 0 96 96" height="96" preserveAspectRatio="xMidYMid meet" version="1"><g clip-path="url(#a)"><g clip-path="url(#b)"><path fill="url(#c)" d="M34 33.9998C41.732 41.7317 54.268 41.7318 62 33.9999C69.732 26.2679 69.732 13.7318 62 5.99986C54.268 -1.73209 41.732 -1.73214 34 5.99979C26.268 13.7318 26.2681 26.2678 34 33.9998Z"/><path fill="url(#d)" d="M34 33.9998C41.732 41.7317 54.268 41.7318 62 33.9999C69.732 26.2679 69.732 13.7318 62 5.99986C54.268 -1.73209 41.732 -1.73214 34 5.99979C26.268 13.7318 26.2681 26.2678 34 33.9998Z"/><path fill="url(#e)" d="M34 33.9998C41.732 41.7317 54.268 41.7318 62 33.9999C69.732 26.2679 69.732 13.7318 62 5.99986C54.268 -1.73209 41.732 -1.73214 34 5.99979C26.268 13.7318 26.2681 26.2678 34 33.9998Z"/><path fill="url(#f)" d="M62 62.0002C54.268 54.2683 41.732 54.2682 34 62.0001C26.268 69.7321 26.268 82.2682 34 90.0001C41.732 97.7321 54.268 97.7321 62 90.0002C69.732 82.2682 69.7319 69.7322 62 62.0002Z"/><path fill="url(#g)" d="M62 62.0002C54.268 54.2683 41.732 54.2682 34 62.0001C26.268 69.7321 26.268 82.2682 34 90.0001C41.732 97.7321 54.268 97.7321 62 90.0002C69.732 82.2682 69.7319 69.7322 62 62.0002Z"/><path fill="url(#h)" d="M62 62.0002C54.268 54.2683 41.732 54.2682 34 62.0001C26.268 69.7321 26.268 82.2682 34 90.0001C41.732 97.7321 54.268 97.7321 62 90.0002C69.732 82.2682 69.7319 69.7322 62 62.0002Z"/><path fill="url(#i)" d="M34 62C41.732 69.732 54.268 69.732 62 62C69.732 54.268 69.732 41.732 62 34C54.268 26.268 41.732 26.268 34 34C26.268 41.732 26.268 54.268 34 62Z"/><path fill="url(#j)" d="M34 62C41.732 69.732 54.268 69.732 62 62C69.732 54.268 69.732 41.732 62 34C54.268 26.268 41.732 26.268 34 34C26.268 41.732 26.268 54.268 34 62Z"/><path fill="url(#k)" d="M34 62C41.732 69.732 54.268 69.732 62 62C69.732 54.268 69.732 41.732 62 34C54.268 26.268 41.732 26.268 34 34C26.268 41.732 26.268 54.268 34 62Z"/><path fill="url(#l)" d="M6.00002 34L34 5.99998C26.2681 13.732 26.268 26.2681 34 34.0001C41.732 41.7321 41.732 54.2681 34 62.0001C26.268 69.732 13.732 69.732 6.00004 62C-1.73195 54.268 -1.73198 41.732 6.00002 34Z"/><path fill="url(#m)" d="M6.00002 34L34 5.99998C26.2681 13.732 26.268 26.2681 34 34.0001C41.732 41.7321 41.732 54.2681 34 62.0001C26.268 69.732 13.732 69.732 6.00004 62C-1.73195 54.268 -1.73198 41.732 6.00002 34Z"/><path fill="url(#n)" d="M90 62L62 90C69.7319 82.268 69.732 69.7319 62 61.9999C54.268 54.2679 54.268 41.7319 62 33.9999C69.732 26.268 82.268 26.268 90 34C97.732 41.732 97.732 54.268 90 62Z"/></g></g><defs><linearGradient x1="30" y1="9.5" x2="67" gradientUnits="userSpaceOnUse" y2="25" xlink:type="simple" xlink:actuate="onLoad" id="c" xlink:show="other"><stop stop-color="#0c74a1"/><stop stop-color="#1384b1" offset="0.468"/><stop stop-color="#16bbda" offset="1"/></linearGradient><linearGradient x1="49" y1="14" x2="26.5" gradientUnits="userSpaceOnUse" y2="24" xlink:type="simple" xlink:actuate="onLoad" id="e" xlink:show="other"><stop stop-opacity="0" stop-color="#1384b1"/><stop stop-color="#004695" offset="1"/></linearGradient><linearGradient x1="68.5" y1="79.5" x2="29" gradientUnits="userSpaceOnUse" y2="71" xlink:type="simple" xlink:actuate="onLoad" id="f" xlink:show="other"><stop stop-color="#06517b"/><stop stop-color="#09638e" offset="0.509"/><stop stop-color="#0c74a1" offset="1"/></linearGradient><linearGradient x1="53" y1="76" x2="69.5" gradientUnits="userSpaceOnUse" y2="72" xlink:type="simple" xlink:actuate="onLoad" id="g" xlink:show="other"><stop stop-opacity="0" stop-color="#09638e"/><stop stop-color="#003580" offset="1"/></linearGradient><linearGradient x1="44.5" y1="29.5" x2="45" gradientUnits="userSpaceOnUse" y2="68.5" xlink:type="simple" xlink:actuate="onLoad" id="i" xlink:show="other"><stop stop-color="#43e5ca"/><stop stop-color="#26cfe8" offset="0.372"/><stop stop-color="#1384b1" offset="1"/></linearGradient><linearGradient x1="14.5" y1="26" x2="43.5" gradientUnits="userSpaceOnUse" y2="55" xlink:type="simple" xlink:actuate="onLoad" id="l" xlink:show="other"><stop stop-color="#b6f6c7"/><stop stop-color="#43e5ca" offset="0.278"/><stop stop-color="#26cfe8" offset="1"/></linearGradient><linearGradient x1="63" y1="30" x2="92.5" gradientUnits="userSpaceOnUse" y2="59.5" xlink:type="simple" xlink:actuate="onLoad" id="n" xlink:show="other"><stop stop-color="#9ff2e4"/><stop stop-color="#2bdabe" offset="0.266"/><stop stop-color="#16bbda" offset="0.621"/><stop stop-color="#1384b1" offset="1"/></linearGradient><radialGradient gradientTransform="translate(48 48) rotate(-90) scale(29.5 29.5)" gradientUnits="userSpaceOnUse" xlink:type="simple" r="1" xlink:actuate="onLoad" cx="0" id="d" cy="0" xlink:show="other"><stop stop-color="#0057aa" offset="0.456"/><stop stop-opacity="0" stop-color="#1384b1" offset="1"/></radialGradient><radialGradient gradientTransform="translate(48 48) rotate(90) scale(36 36)" gradientUnits="userSpaceOnUse" xlink:type="simple" r="1" xlink:actuate="onLoad" cx="0" id="h" cy="0" xlink:show="other"><stop stop-color="#003580" offset="0.423"/><stop stop-opacity="0" stop-color="#09638e" offset="1"/></radialGradient><radialGradient gradientTransform="translate(76 48) rotate(90) scale(32)" gradientUnits="userSpaceOnUse" xlink:type="simple" r="1" xlink:actuate="onLoad" cx="0" id="j" cy="0" xlink:show="other"><stop stop-color="#09638e" offset="0.4"/><stop stop-opacity="0" stop-color="#119fc5" offset="1"/></radialGradient><radialGradient gradientTransform="translate(20 48) rotate(90) scale(34)" gradientUnits="userSpaceOnUse" xlink:type="simple" r="1" xlink:actuate="onLoad" cx="0" id="k" cy="0" xlink:show="other"><stop stop-color="#09638e" offset="0.4"/><stop stop-opacity="0" stop-color="#119fc5" offset="1"/></radialGradient><radialGradient gradientTransform="translate(11.5 26) rotate(65.4495) scale(44.5253 44.8148)" gradientUnits="userSpaceOnUse" xlink:type="simple" r="1" xlink:actuate="onLoad" cx="0" id="m" cy="0" xlink:show="other"><stop stop-opacity="0" stop-color="#2bdabe" offset="0.585"/><stop stop-color="#119fc5" offset="1"/></radialGradient><clipPath id="a"><path fill="#ffffff" d="M0 0H96V96H0z"/></clipPath><clipPath id="b"><path fill="#ffffff" d="M0 0H96V96H0z"/></clipPath></defs></svg>