<?xml version="1.0" encoding="UTF-8" standalone="no"?><svg xmlns="http://www.w3.org/2000/svg" xmlns:xlink="http://www.w3.org/1999/xlink" contentScriptType="text/ecmascript" fill="#000000" width="595.28" zoomAndPan="magnify" contentStyleType="text/css" viewBox="0 0 595.28 841.89" height="841.89" preserveAspectRatio="xMidYMid meet" version="1"><g><path d="M84.89,666.24H67.73L25.04,563.11h18.48l32.71,83.47l32.86-83.47h18.34L84.89,666.24z"/><path fill="#00b398" d="M126.24,622.59h39.37v13.64h-39.37V622.59z"/><path d="M224.05,666.24h-17.16L164.2,563.11h18.48l32.71,83.47l32.86-83.47h18.34L224.05,666.24z"/><path d="M324.23,593.48h14.67v72.32h-14.38l-0.73-11.73c-4.69,9.39-16.14,13.64-24.94,13.64c-21.12,0-37.11-13.49-37.11-38.14 c0-24.2,16.72-37.7,37.41-37.7c10.41,0,20.1,4.84,24.64,13.06L324.23,593.48z M276.85,629.56c0,14.82,10.56,24.06,23.47,24.06 c31.24,0,31.24-47.97,0-47.97C287.41,605.65,276.85,614.89,276.85,629.56z"/><path d="M371.58,563.26V665.8h-15.11v-95.98L371.58,563.26z"/><path d="M404.26,563.26V665.8h-15.11v-95.98L404.26,563.26z"/><path d="M433.42,635.58c1.32,11.15,10.27,18.19,23.62,18.19c7.48,0,16.43-2.64,20.98-7.77l9.83,9.53 c-7.48,8.36-19.95,12.32-31.1,12.32c-23.76,0-39.02-15.11-39.02-38.29c0-22,15.4-37.7,37.99-37.7c23.32,0,39.17,14.38,36.38,43.71 H433.42z M477.58,622.82c-1.03-11.59-9.09-17.46-21.42-17.46c-11.15,0-20.1,5.87-22.44,17.46H477.58z"/><path d="M511.13 693.56L527.85 693.56 570.96 593.48 554.09 593.48 539.71 627.95 531.94 648.19 524.75 627.66 512.28 593.48 494.68 593.48 523.58 664.77z"/></g><g><path fill="#64ccc9" d="M298 277.08L474.11 168.73 457.74 147.44 138.26 147.44 121.89 168.73z"/><path fill="#004f59" d="M287.59 295.12L111.01 186.48 96.73 218.54 287.59 507.8z"/><path fill="#00b398" d="M484.99 186.48L308.41 295.12 308.41 507.8 499.27 218.54z"/></g></svg>