<?xml version="1.0" encoding="UTF-8" standalone="no"?><svg xmlns="http://www.w3.org/2000/svg" xmlns:xlink="http://www.w3.org/1999/xlink" contentScriptType="text/ecmascript" fill="none" width="200" zoomAndPan="magnify" style="fill: none" contentStyleType="text/css" viewBox="0 0 200 65" height="65" preserveAspectRatio="xMidYMid meet" version="1"><path fill="#14354e" d="M26.252 10.3946C27.0367 10.3946 27.7236 10.6901 28.2432 11.2491L28.2451 11.251C28.7552 11.8024 29.0136 12.4966 29.0137 13.3135V45.168C29.0137 49.0726 28.2879 52.4685 26.8564 55.2617C25.4116 58.0776 23.3745 60.2472 20.8027 61.7119C18.2436 63.1674 15.3266 63.9053 12.1309 63.9053C10.2 63.9053 8.36671 63.6784 6.68262 63.2305C4.98102 62.7776 3.54233 62.1588 2.40625 61.3926C1.25426 60.6231 0.66896 59.7076 0.668945 58.6748C0.668945 58.552 0.687571 58.3587 0.822266 57.7813L0.830078 57.752C1.00828 57.1111 1.32306 56.6135 1.76562 56.2735C2.20731 55.931 2.70069 55.7559 3.22852 55.7559C3.62084 55.7559 4.01154 55.8597 4.38965 56.0635L4.41504 56.0782C7.13978 57.6865 9.75779 58.501 12.1973 58.501C15.7017 58.5009 18.395 57.3579 20.4287 55.0059C22.4608 52.6538 23.4912 49.367 23.4912 45.2403V45.1446C22.4814 46.3569 21.2488 47.3926 19.8057 48.2373C17.6005 49.5281 15.1761 50.1817 12.5986 50.1817C8.49505 50.1817 5.32434 48.8232 3.17676 46.1436C1.06855 43.5158 0 39.9302 0 35.4893V13.3135C6.1203e-05 12.4949 0.258394 11.8006 0.768555 11.25C1.28724 10.6902 1.97603 10.3946 2.76074 10.3946C3.54547 10.3946 4.23242 10.6901 4.75195 11.2491C5.26306 11.8021 5.52142 12.4965 5.52148 13.3135V34.8389C5.52151 38.1176 6.17704 40.6101 7.46875 42.2461C8.73539 43.8519 10.6982 44.6319 13.4697 44.6319C15.1545 44.6318 16.7931 44.1691 18.3398 43.2559C19.9 42.336 21.1642 41.1087 22.0986 39.6065C23.0222 38.1217 23.4912 36.5183 23.4912 34.8389V13.3135C23.4913 12.4949 23.7496 11.8006 24.2598 11.25C24.7784 10.6902 25.4673 10.3946 26.252 10.3946Z"/><path fill="#14354e" d="M50.147 10.1772C53.4489 10.1772 56.4905 11.0688 59.1909 12.8275C61.8806 14.5806 64.0183 17.012 65.5435 20.0551C67.0619 23.0848 67.8315 26.5029 67.8315 30.2152C67.8315 33.9276 67.0619 37.3475 65.5435 40.3764C64.0175 43.4209 61.8782 45.841 59.187 47.5697C56.4874 49.3026 53.4455 50.18 50.146 50.1801C46.8458 50.18 43.8038 49.3018 41.105 47.5697C38.4139 45.8427 36.2753 43.4226 34.7485 40.3764C33.2301 37.3483 32.4604 33.9293 32.4604 30.2152C32.4605 26.5013 33.2301 23.0847 34.7485 20.0551C36.2745 17.0111 38.4122 14.5797 41.1011 12.8275C43.8008 11.0687 46.8449 10.1772 50.147 10.1772ZM50.147 15.726C47.9024 15.726 45.8364 16.352 44.0093 17.5844C42.1654 18.8285 40.6852 20.5657 39.6118 22.7465C38.531 24.9431 37.982 27.4555 37.9819 30.2152C37.9819 32.9751 38.5301 35.416 39.6118 37.6127C40.686 39.7952 42.1662 41.5323 44.0093 42.7748C45.8355 44.0072 47.9 44.6322 50.147 44.6322C52.3941 44.6322 54.4754 44.0175 56.3276 42.8051C58.1873 41.5869 59.6626 39.8655 60.7134 37.6898C61.7742 35.4907 62.313 32.9751 62.313 30.2152C62.313 27.4555 61.7742 24.9406 60.7134 22.7406C59.6627 20.5642 58.1857 18.8304 56.3228 17.5863C54.4722 16.3522 52.3943 15.726 50.1479 15.726H50.147Z"/><path fill="#14354e" d="M88.7812 10.1772C92.0834 10.1772 95.1256 11.0687 97.8262 12.8275C100.516 14.5805 102.654 17.012 104.179 20.0551C105.697 23.0847 106.467 26.503 106.467 30.2152C106.467 33.9276 105.697 37.3475 104.179 40.3764C102.653 43.4209 100.513 45.841 97.8223 47.5697C95.1225 49.3027 92.0799 50.1801 88.7803 50.1801C85.4802 50.1799 82.4389 49.3017 79.7402 47.5697C77.049 45.8427 74.9106 43.4226 73.3838 40.3764C71.8653 37.3483 71.0957 33.9293 71.0957 30.2152C71.0957 26.5013 71.8654 23.0848 73.3838 20.0551C74.9098 17.0112 77.0475 14.5797 79.7363 12.8275C82.436 11.0688 85.4793 10.1772 88.7812 10.1772ZM88.7812 15.726C86.5367 15.726 84.4707 16.3519 82.6436 17.5844C80.7998 18.8285 79.3204 20.5658 78.2471 22.7465C77.1662 24.9431 76.6172 27.4555 76.6172 30.2152C76.6172 32.9751 77.1653 35.416 78.2471 37.6127C79.3212 39.795 80.8007 41.5324 82.6436 42.7748C84.4699 44.0073 86.5351 44.6322 88.7822 44.6322C91.0292 44.6322 93.1097 44.0173 94.9619 42.8051C96.8217 41.5869 98.2979 39.8656 99.3486 37.6898C100.409 35.4907 100.947 32.9751 100.947 30.2152C100.947 27.4555 100.409 24.9406 99.3486 22.7406C98.2979 20.564 96.8202 18.8305 94.957 17.5863C93.1065 16.3522 91.0294 15.726 88.7832 15.726H88.7812Z"/><path fill="#14354e" d="M131.416 10.5379C132.172 10.5381 132.836 10.857 133.335 11.4618C133.805 12.0325 134.042 12.7042 134.042 13.4579C134.042 14.137 133.819 14.8134 133.379 15.4666L114.288 43.91H130.948C131.731 43.9101 132.407 44.1929 132.905 44.7274L132.907 44.7293C133.394 45.2574 133.642 45.9148 133.642 46.6834C133.642 47.4521 133.394 48.1121 132.907 48.6385C132.403 49.1815 131.744 49.4578 130.949 49.4579H130.947V49.4588H109.195C108.383 49.4588 107.693 49.1205 107.195 48.4813C106.735 47.8932 106.501 47.2646 106.5 46.6122C106.5 45.8225 106.754 45.1126 107.25 44.5018L126.258 16.0877H110.868C110.123 16.0877 109.48 15.8171 108.958 15.284C108.438 14.7569 108.174 14.0935 108.174 13.3133C108.174 12.5329 108.438 11.8704 108.958 11.3407C109.475 10.8152 110.136 10.538 110.868 10.5379H131.416Z"/><path fill="#00bfa5" d="M155.074 57.9889C154.338 57.9889 153.741 57.392 153.741 56.6556V17.6522L146.565 18.4059C146.199 18.4444 145.933 18.7724 145.972 19.1386L150.658 63.7276C150.696 64.0937 151.024 64.3594 151.39 64.3209L181.558 61.1503C181.924 61.1118 182.189 60.7837 182.151 60.4176L181.896 57.9889H155.074Z"/><path fill="#006aff" d="M167.084 0.823591C166.717 0.785108 166.389 1.05072 166.351 1.41687L165.747 7.15558H188.741C189.477 7.15558 190.074 7.75253 190.074 8.48891V49.6606L192.424 49.9076C192.79 49.946 193.118 49.6804 193.157 49.3143L197.844 4.72694C197.883 4.36076 197.617 4.03271 197.251 3.99423L167.084 0.823591Z"/><path fill="#e0185e" d="M156.741 9.48891C156.372 9.48891 156.074 9.78739 156.074 10.1556V54.9889C156.074 55.3571 156.372 55.6556 156.741 55.6556H187.074C187.442 55.6556 187.741 55.3571 187.741 54.9889V10.1556C187.741 9.78739 187.442 9.48891 187.074 9.48891H156.741Z"/><g clip-path="url(#a)"><path fill="#fefefe" d="M172.768 17.5532L171.918 16.9865L171.052 17.5532C170.685 17.8032 161.968 23.6865 161.968 32.7865C161.968 39.5699 166.802 42.0532 170.335 42.6032V46.8532C170.335 47.7032 171.018 48.4032 171.868 48.4032C172.718 48.4032 173.418 47.7032 173.418 46.8532V42.6032C176.952 42.0532 181.802 39.5865 181.818 32.8199C181.835 23.7199 173.152 17.8032 172.768 17.5532ZM177.235 38.2365C175.952 39.4199 174.385 39.9032 173.385 40.1032V28.5699C173.402 27.7699 172.718 27.1199 171.868 27.1199C171.018 27.1199 170.335 27.7532 170.335 28.5699V40.1032C169.318 39.9032 167.768 39.4032 166.518 38.2365C165.152 36.9699 164.452 35.1365 164.452 32.8199C164.452 30.5032 165.735 26.4865 168.268 23.4865C169.702 21.7865 171.135 20.6032 171.885 20.0365C172.635 20.6032 174.068 21.8032 175.502 23.5032C178.035 26.5199 179.302 29.6532 179.302 32.8532C179.302 36.0532 178.602 36.9865 177.218 38.2532L177.235 38.2365Z"/></g><defs><clipPath id="a"><path fill="#ffffff" d="M0 0H19.85V31.417H0z" transform="translate(161.968 16.9865)"/></clipPath></defs></svg>